<svg xmlns="http://www.w3.org/2000/svg" xmlns:xlink="http://www.w3.org/1999/xlink" width="69" height="71" viewBox="0 0 69 71">
  <defs>
    <filter id="Rectangle_21" x="0" y="0" width="69" height="71" filterUnits="userSpaceOnUse">
      <feOffset dy="3" input="SourceAlpha"/>
      <feGaussianBlur stdDeviation="3" result="blur"/>
      <feFlood flood-opacity="0.161"/>
      <feComposite operator="in" in2="blur"/>
      <feComposite in="SourceGraphic"/>
    </filter>
  </defs>
  <g id="Group_13" data-name="Group 13" transform="translate(-1440 -120)">
    <g transform="matrix(1, 0, 0, 1, 1440, 120)" filter="url(#Rectangle_21)">
      <rect id="Rectangle_21-2" data-name="Rectangle 21" width="51" height="53" rx="14" transform="translate(9 6)" fill="#fff"/>
    </g>
    <g id="logout" transform="translate(1458.755 137.055)">
      <g id="Group_10" data-name="Group 10" transform="translate(0 0)">
        <g id="Group_7" data-name="Group 7">
          <path id="Path_58" data-name="Path 58" d="M17.713,31.49H3.28A3.285,3.285,0,0,1,0,28.21V3.28A3.285,3.285,0,0,1,3.28,0H17.713a3.285,3.285,0,0,1,3.28,3.28v7.873a.656.656,0,0,1-1.312,0V3.28a1.971,1.971,0,0,0-1.968-1.968H3.28A1.971,1.971,0,0,0,1.312,3.28V28.21A1.971,1.971,0,0,0,3.28,30.178H17.713a1.971,1.971,0,0,0,1.968-1.968V20.337a.656.656,0,1,1,1.312,0V28.21A3.285,3.285,0,0,1,17.713,31.49Z" fill="red"/>
        </g>
        <g id="Group_8" data-name="Group 8" transform="translate(10.497 15.089)">
          <path id="Path_59" data-name="Path 59" d="M28.337,12.812H8.656a.656.656,0,0,1,0-1.312H28.337a.656.656,0,0,1,0,1.312Z" transform="translate(-8 -11.5)" fill="red"/>
        </g>
        <g id="Group_9" data-name="Group 9" transform="translate(24.929 9.842)">
          <path id="Path_60" data-name="Path 60" d="M19.656,19.309a.655.655,0,0,1-.464-1.119L23.977,13.4,19.193,8.62a.656.656,0,0,1,.928-.928l5.248,5.248a.656.656,0,0,1,0,.928l-5.248,5.248A.659.659,0,0,1,19.656,19.309Z" transform="translate(-19 -7.501)" fill="red"/>
        </g>
      </g>
    </g>
  </g>
</svg>
