<svg xmlns="http://www.w3.org/2000/svg" width="158.087" height="142.597" viewBox="0 0 158.087 142.597">
  <g id="folders" transform="translate(0 -25.087)">
    <path id="Path_23" data-name="Path 23" d="M41.828,177.1H3.7A3.7,3.7,0,0,1,0,173.4V42.776a3.7,3.7,0,0,1,3.7-3.7H41.828a3.7,3.7,0,0,1,3.7,3.7V173.4A3.7,3.7,0,0,1,41.828,177.1Z" transform="translate(0 -9.667)" fill="#05e29a"/>
    <path id="Path_24" data-name="Path 24" d="M41.7,39.071H33.936V150.733a15.2,15.2,0,0,1-15.2,15.2H0v7.334A3.836,3.836,0,0,0,3.836,177.1H41.7a3.836,3.836,0,0,0,3.836-3.836V42.907A3.836,3.836,0,0,0,41.7,39.071Z" transform="translate(0 -9.667)" fill="#1dd08d"/>
    <path id="Path_25" data-name="Path 25" d="M50.122,396.437H39.509a7.613,7.613,0,0,1-7.613-7.613v-.539a7.613,7.613,0,0,1,7.613-7.613H50.122a7.613,7.613,0,0,1,7.613,7.613v.539A7.612,7.612,0,0,1,50.122,396.437Z" transform="translate(-22.049 -245.806)" fill="#586b76"/>
    <path id="Path_26" data-name="Path 26" d="M50.646,380.672H48.326A7.888,7.888,0,0,1,40.8,390.9H33.044a7.886,7.886,0,0,0,7.528,5.538H50.646a7.882,7.882,0,0,0,0-15.764Z" transform="translate(-22.842 -245.805)" fill="#465961"/>
    <path id="Path_27" data-name="Path 27" d="M54.467,164.165H30.87a2.08,2.08,0,0,1-2.08-2.08V97.612a2.08,2.08,0,0,1,2.08-2.08h23.6a2.08,2.08,0,0,1,2.08,2.08v64.473A2.08,2.08,0,0,1,54.467,164.165Z" transform="translate(-19.902 -48.697)" fill="#fff0e1"/>
    <path id="Path_28" data-name="Path 28" d="M54.393,95.532H47.658v57.987a2.153,2.153,0,0,1-2.153,2.153H28.79v6.339a2.153,2.153,0,0,0,2.153,2.153h23.45a2.153,2.153,0,0,0,2.153-2.153V97.685a2.153,2.153,0,0,0-2.153-2.153Z" transform="translate(-19.902 -48.697)" fill="#ffeccf"/>
    <path id="Path_29" data-name="Path 29" d="M189.27,177.1H151.147a3.7,3.7,0,0,1-3.7-3.7V42.776a3.7,3.7,0,0,1,3.7-3.7H189.27a3.7,3.7,0,0,1,3.7,3.7V173.4A3.7,3.7,0,0,1,189.27,177.1Z" transform="translate(-101.922 -9.667)" fill="#fcb143"/>
    <path id="Path_30" data-name="Path 30" d="M189.139,39.071h-7.761V150.733a15.2,15.2,0,0,1-15.2,15.2H147.442v7.334a3.836,3.836,0,0,0,3.836,3.836h37.861a3.836,3.836,0,0,0,3.836-3.836V42.907A3.836,3.836,0,0,0,189.139,39.071Z" transform="translate(-101.922 -9.667)" fill="#fba615"/>
    <path id="Path_31" data-name="Path 31" d="M197.565,396.437H186.952a7.613,7.613,0,0,1-7.613-7.613v-.539a7.613,7.613,0,0,1,7.613-7.613h10.613a7.613,7.613,0,0,1,7.613,7.613v.539A7.613,7.613,0,0,1,197.565,396.437Z" transform="translate(-123.972 -245.806)" fill="#586b76"/>
    <path id="Path_32" data-name="Path 32" d="M198.089,380.672h-2.32a7.888,7.888,0,0,1-7.528,10.226h-7.754a7.886,7.886,0,0,0,7.528,5.538h10.074a7.882,7.882,0,0,0,0-15.764Z" transform="translate(-124.765 -245.805)" fill="#465961"/>
    <path id="Path_33" data-name="Path 33" d="M201.909,164.165h-23.6a2.08,2.08,0,0,1-2.08-2.08V97.612a2.08,2.08,0,0,1,2.08-2.08h23.6a2.08,2.08,0,0,1,2.08,2.08v64.473A2.08,2.08,0,0,1,201.909,164.165Z" transform="translate(-121.824 -48.697)" fill="#fff0e1"/>
    <path id="Path_34" data-name="Path 34" d="M201.836,95.532H195.1v57.987a2.153,2.153,0,0,1-2.153,2.153H176.233v6.339a2.153,2.153,0,0,0,2.153,2.153h23.45a2.153,2.153,0,0,0,2.153-2.153V97.685a2.153,2.153,0,0,0-2.153-2.153Z" transform="translate(-121.825 -48.697)" fill="#ffeccf"/>
    <path id="Path_35" data-name="Path 35" d="M358.837,161.189l-37.576,6.441a3.7,3.7,0,0,1-4.277-3.026L294.915,35.859a3.7,3.7,0,0,1,3.026-4.277l37.576-6.441a3.7,3.7,0,0,1,4.277,3.026l22.068,128.746a3.705,3.705,0,0,1-3.026,4.277Z" transform="translate(-203.829 0)" fill="#fc6b55"/>
    <path id="Path_36" data-name="Path 36" d="M382.112,25.208l-7.837,1.249,18.872,110.363a15.2,15.2,0,0,1-12.415,17.551L362.455,157.6l1.232,6.922a3.836,3.836,0,0,0,4.429,3.133l37.317-6.4a3.836,3.836,0,0,0,3.133-4.429L386.541,28.341a3.836,3.836,0,0,0-4.429-3.133Z" transform="translate(-250.554 -0.046)" fill="#fc534e"/>
    <path id="Path_37" data-name="Path 37" d="M405.417,384.77l-10.46,1.793a7.613,7.613,0,0,1-8.79-6.217l-.091-.531a7.613,7.613,0,0,1,6.217-8.79l10.46-1.793a7.613,7.613,0,0,1,8.79,6.217l.091.531A7.613,7.613,0,0,1,405.417,384.77Z" transform="translate(-266.806 -237.821)" fill="#586b76"/>
    <path id="Path_38" data-name="Path 38" d="M404.507,369.37l-2.286.392a7.889,7.889,0,0,1-5.692,11.351l-7.643,1.31a7.886,7.886,0,0,0,8.355,4.187l9.929-1.7a7.882,7.882,0,1,0-2.663-15.538Z" transform="translate(-268.825 -237.914)" fill="#465961"/>
    <path id="Path_39" data-name="Path 39" d="M368.546,152.464l-23.258,3.987a2.079,2.079,0,0,1-2.4-1.7L331.994,91.206a2.079,2.079,0,0,1,1.7-2.4l23.258-3.987a2.079,2.079,0,0,1,2.4,1.7l10.893,63.547A2.079,2.079,0,0,1,368.546,152.464Z" transform="translate(-229.477 -41.27)" fill="#fff0e1"/>
    <path id="Path_40" data-name="Path 40" d="M379.023,84.856l-6.638,1.138,9.848,57.551a2.153,2.153,0,0,1-1.759,2.486L364,148.854l1.02,5.851a2.153,2.153,0,0,0,2.486,1.759l23.113-3.962a2.153,2.153,0,0,0,1.759-2.486l-10.868-63.4a2.153,2.153,0,0,0-2.486-1.759Z" transform="translate(-251.622 -41.295)" fill="#ffeccf"/>
    <path id="Path_41" data-name="Path 41" d="M44.484,372.907H34.41a10.28,10.28,0,0,0,0,20.56H44.484a10.28,10.28,0,0,0,0-20.56Zm0,15.765H34.41a5.485,5.485,0,0,1,0-10.97H44.484a5.485,5.485,0,1,1,0,10.97Z" transform="translate(-16.68 -240.438)" fill="#e5ecf1"/>
    <path id="Path_42" data-name="Path 42" d="M53.751,184.152a2.4,2.4,0,0,0,2.4-2.4V152.109a2.4,2.4,0,1,0-4.8,0v29.646A2.4,2.4,0,0,0,53.751,184.152Z" transform="translate(-35.499 -86.149)" fill="#fbbe66"/>
    <path id="Path_43" data-name="Path 43" d="M83,201.648a2.4,2.4,0,0,0,2.4-2.4V177.419a2.4,2.4,0,0,0-4.8,0V199.25a2.4,2.4,0,0,0,2.4,2.4Z" transform="translate(-55.716 -103.645)" fill="#fbbe66"/>
    <path id="Path_44" data-name="Path 44" d="M191.926,372.907H181.852a10.28,10.28,0,0,0,0,20.56h10.074a10.28,10.28,0,1,0,0-20.56Zm0,15.765H181.852a5.485,5.485,0,1,1,0-10.97h10.074a5.485,5.485,0,1,1,0,10.97Z" transform="translate(-118.603 -240.438)" fill="#e5ecf1"/>
    <path id="Path_45" data-name="Path 45" d="M201.193,184.152a2.4,2.4,0,0,0,2.4-2.4V152.109a2.4,2.4,0,1,0-4.8,0v29.646A2.4,2.4,0,0,0,201.193,184.152Z" transform="translate(-137.421 -86.149)" fill="#fbbe66"/>
    <path id="Path_46" data-name="Path 46" d="M230.44,184.152a2.4,2.4,0,0,0,2.4-2.4V152.109a2.4,2.4,0,1,0-4.8,0v29.646a2.4,2.4,0,0,0,2.4,2.4Z" transform="translate(-157.638 -86.149)" fill="#fbbe66"/>
    <path id="Path_47" data-name="Path 47" d="M396.806,361.64l-9.929,1.7a10.281,10.281,0,0,0,1.715,20.414,10.437,10.437,0,0,0,1.759-.15l9.929-1.7a10.28,10.28,0,1,0-3.473-20.264Zm6.214,13.3a5.448,5.448,0,0,1-3.551,2.239l-9.929,1.7a5.485,5.485,0,1,1-1.853-10.812l9.929-1.7a5.484,5.484,0,0,1,5.4,8.573Z" transform="translate(-261.529 -232.546)" fill="#e5ecf1"/>
    <g id="Group_6" data-name="Group 6" transform="translate(112.228 61.231)">
      <path id="Path_48" data-name="Path 48" d="M365.508,147.137a2.4,2.4,0,0,0-1.958,2.768l5.009,29.219a2.4,2.4,0,1,0,4.726-.81l-5.009-29.219A2.4,2.4,0,0,0,365.508,147.137Z" transform="translate(-363.515 -145.576)" fill="#fbbe66"/>
      <path id="Path_49" data-name="Path 49" d="M399.746,176.175a2.4,2.4,0,0,0,2.366-2.8L397.1,144.152a2.4,2.4,0,1,0-4.726.81l5.009,29.219A2.4,2.4,0,0,0,399.746,176.175Z" transform="translate(-383.442 -142.16)" fill="#fbbe66"/>
    </g>
  </g>
</svg>
