<svg xmlns="http://www.w3.org/2000/svg" width="133.775" height="84.939" viewBox="0 0 133.775 84.939">
  <g id="group" transform="translate(0 -92.25)">
    <g id="Group_5" data-name="Group 5" transform="translate(0 92.25)">
      <path id="Path_22" data-name="Path 22" d="M115.7,129.624a15.273,15.273,0,1,0-17.523,0,26.462,26.462,0,0,0-9.026,5.294,34.242,34.242,0,0,0-12.388-6.75,19.349,19.349,0,1,0-20.011,0,34.527,34.527,0,0,0-12.255,6.67,26.677,26.677,0,0,0-8.92-5.188,15.273,15.273,0,1,0-17.523,0A26.808,26.808,0,0,0,0,154.982v1.747a.114.114,0,0,0,.106.106H32.478a35.6,35.6,0,0,0-.291,4.473v1.8a14.075,14.075,0,0,0,14.082,14.082H87.3a14.075,14.075,0,0,0,14.082-14.082v-1.8a35.6,35.6,0,0,0-.291-4.473h32.583a.114.114,0,0,0,.106-.106v-1.747A26.911,26.911,0,0,0,115.7,129.624ZM95.9,117.1a11.038,11.038,0,1,1,11.249,11.038h-.423A11.022,11.022,0,0,1,95.9,117.1ZM51.588,111.6a15.114,15.114,0,1,1,15.987,15.087H65.829A15.136,15.136,0,0,1,51.588,111.6ZM15.7,117.1a11.038,11.038,0,1,1,11.249,11.038h-.424A11.039,11.039,0,0,1,15.7,117.1Zm17.523,35.469H4.288a22.616,22.616,0,0,1,22.287-20.2h.318a22.381,22.381,0,0,1,14.426,5.373A34.754,34.754,0,0,0,33.219,152.573Zm63.87,10.535a9.862,9.862,0,0,1-9.846,9.846H46.215a9.862,9.862,0,0,1-9.846-9.846v-1.8a30.405,30.405,0,0,1,29.46-30.36c.291.026.609.026.9.026s.609,0,.9-.026a30.405,30.405,0,0,1,29.46,30.36Zm3.15-10.535a34.662,34.662,0,0,0-8.02-14.717,22.489,22.489,0,0,1,14.558-5.479h.318a22.616,22.616,0,0,1,22.287,20.2Z" transform="translate(0 -92.25)" fill="#b0e1df"/>
    </g>
  </g>
</svg>
