<svg xmlns="http://www.w3.org/2000/svg" width="59.142" height="50.723" viewBox="0 0 59.142 50.723">
  <g id="image" transform="translate(-0.001 -0.5)">
    <path id="Path_56" data-name="Path 56" d="M186.658,108.133a5.908,5.908,0,1,0-5.908-5.908A5.915,5.915,0,0,0,186.658,108.133Zm0-8.352a2.443,2.443,0,1,1-2.443,2.443A2.446,2.446,0,0,1,186.658,99.782Zm0,0" transform="translate(-159.87 -84.748)" fill="#fff"/>
    <path id="Path_57" data-name="Path 57" d="M56.983.5H2.16A2.162,2.162,0,0,0,0,2.66v46.4a2.162,2.162,0,0,0,2.16,2.16H56.983a2.162,2.162,0,0,0,2.16-2.16V2.66A2.162,2.162,0,0,0,56.983.5ZM55.677,3.965V31.388l-10.9-10.9a1.825,1.825,0,0,0-2.576,0L26.788,35.9l-9.846-9.846a1.822,1.822,0,0,0-2.578,0l-10.9,10.9V3.965ZM3.466,47.758v-5.9L15.652,29.67,25.5,39.516a1.821,1.821,0,0,0,2.578,0L43.491,24.1,55.678,36.289V47.758Zm0,0" fill="#fff"/>
  </g>
</svg>
