<svg id="Layer_17" data-name="Layer 17" xmlns="http://www.w3.org/2000/svg" width="135.825" height="135.825" viewBox="0 0 135.825 135.825">
  <path id="Path_1" data-name="Path 1" d="M134.635,1H3.191A2.191,2.191,0,0,0,1,3.191V134.635a2.191,2.191,0,0,0,2.191,2.191H134.635a2.191,2.191,0,0,0,2.191-2.191V3.191A2.191,2.191,0,0,0,134.635,1Zm-2.191,4.381V44.815H5.381V5.381ZM5.381,132.444V49.2H132.444v83.248Z" transform="translate(-1 -1)"/>
  <path id="Path_2" data-name="Path 2" d="M8,7h4.381V28.907H8Z" transform="translate(7.335 6.144)"/>
  <path id="Path_3" data-name="Path 3" d="M37,7h4.381V28.907H37Z" transform="translate(41.866 6.144)"/>
  <path id="Path_4" data-name="Path 4" d="M16.382,16.872l6.9,10.954a2.191,2.191,0,0,0,1.862,1.117,2.191,2.191,0,0,0,.613,0,2.191,2.191,0,0,0,1.577-2.191V7.036H22.955V19.106l-6.9-10.954A2.139,2.139,0,0,0,12,9.226V28.943h4.381Z" transform="translate(12.097 6.109)"/>
  <path id="Path_5" data-name="Path 5" d="M25.754,27.921a2.191,2.191,0,0,0,3.637,0l4.381-6.572a2.191,2.191,0,0,0,.372-1.2V7H29.763V19.487l-2.191,3.286-2.191-3.286V7H21V20.144a2.191,2.191,0,0,0,.372,1.2Z" transform="translate(22.815 6.144)"/>
  <path id="Path_6" data-name="Path 6" d="M35.572,28.907a6.572,6.572,0,0,0,6.572-6.572V13.572a6.572,6.572,0,1,0-13.144,0v8.763A6.572,6.572,0,0,0,35.572,28.907ZM33.381,13.572a2.191,2.191,0,1,1,4.381,0v8.763a2.191,2.191,0,1,1-4.381,0Z" transform="translate(32.34 6.144)"/>
  <path id="Path_7" data-name="Path 7" d="M47.572,28.907h2.191a6.572,6.572,0,0,0,6.572-6.572H51.954a2.191,2.191,0,0,1-2.191,2.191H47.572a2.191,2.191,0,0,1-2.191-2.191V13.572a2.191,2.191,0,0,1,2.191-2.191h2.191a2.191,2.191,0,0,1,2.191,2.191h4.381A6.572,6.572,0,0,0,49.763,7H47.572A6.572,6.572,0,0,0,41,13.572v8.763A6.572,6.572,0,0,0,47.572,28.907Z" transform="translate(46.629 6.144)"/>
  <path id="Path_8" data-name="Path 8" d="M52.191,28.907H63.144V24.526H54.381V20.144h8.763V15.763H54.381V11.381h8.763V7H52.191A2.191,2.191,0,0,0,50,9.191V26.717A2.191,2.191,0,0,0,52.191,28.907Z" transform="translate(57.346 6.144)"/>
  <path id="Path_9" data-name="Path 9" d="M121.109,27H7.191A2.191,2.191,0,0,0,5,29.191V94.913A2.191,2.191,0,0,0,7.191,97.1H121.109a2.191,2.191,0,0,0,2.191-2.191V29.191A2.191,2.191,0,0,0,121.109,27Zm-2.191,13.144H66.34V31.381h52.578ZM61.959,31.381v8.763H9.381V31.381ZM9.381,44.526H61.959v48.2H9.381Zm56.959,48.2v-48.2h52.578v48.2Z" transform="translate(3.763 29.959)"/>
  <path id="Path_10" data-name="Path 10" d="M49.763,45.763a4.381,4.381,0,0,1,4.381,4.381h4.381a8.763,8.763,0,0,0-6.572-8.456V37H47.572v4.688a8.763,8.763,0,0,0,2.191,17.219,4.381,4.381,0,1,1-4.381,4.381H41a8.763,8.763,0,0,0,6.572,8.456v4.688h4.381V71.745a8.763,8.763,0,0,0-2.191-17.219,4.381,4.381,0,1,1,0-8.763Z" transform="translate(46.629 41.866)"/>
  <path id="Path_11" data-name="Path 11" d="M9,39H52.815v4.381H9Z" transform="translate(8.526 44.248)"/>
  <path id="Path_12" data-name="Path 12" d="M9,45H52.815v4.381H9Z" transform="translate(8.526 51.392)"/>
  <path id="Path_13" data-name="Path 13" d="M9,51H52.815v4.381H9Z" transform="translate(8.526 58.537)"/>
</svg>
