<svg xmlns="http://www.w3.org/2000/svg" width="76.175" height="73" viewBox="0 0 76.175 73">
  <g id="paper-plane" transform="translate(0 0)">
    <path id="Path_20" data-name="Path 20" d="M65.066,63.478a1.566,1.566,0,0,1-.524-.089L1.064,41.172a1.585,1.585,0,0,1-.209-2.9l73-38.087a1.586,1.586,0,0,1,2.3,1.654l-9.522,60.3a1.587,1.587,0,0,1-1.568,1.339ZM5.571,39.385,63.8,59.765,72.531,4.45Z" transform="translate(0 0)"/>
    <path id="Path_21" data-name="Path 21" d="M10.587,73a1.635,1.635,0,0,1-.476-.073A1.591,1.591,0,0,1,9,71.411V49.194a1.573,1.573,0,0,1,.428-1.082L53.863.5A1.585,1.585,0,1,1,56.18,2.667L12.174,49.819V66.384l9.357-13.34a1.586,1.586,0,0,1,2.6,1.822L11.885,72.322a1.583,1.583,0,0,1-1.3.676Z" transform="translate(19.566 0.002)"/>
  </g>
</svg>
