<svg xmlns="http://www.w3.org/2000/svg" width="122" height="111.903" viewBox="0 0 122 111.903">
  <g id="percentage" transform="translate(0 -20.113)">
    <g id="Group_4" data-name="Group 4" transform="translate(0 20.113)">
      <path id="Path_16" data-name="Path 16" d="M105.609,36.5a55.942,55.942,0,0,0-79.622.5A3.018,3.018,0,0,0,30.3,41.223,49.915,49.915,0,1,1,16.122,76.064v-.628l4.97,4.97a3.022,3.022,0,0,0,2.134.879,3.066,3.066,0,0,0,2.134-.879,3.015,3.015,0,0,0,0-4.267L15.268,66.024a3.015,3.015,0,0,0-4.267,0L.885,76.14a3.017,3.017,0,0,0,4.267,4.267l4.97-4.97v.628a55.946,55.946,0,0,0,95.512,39.56,55.965,55.965,0,0,0-.025-79.12Z" transform="translate(0 -20.113)"/>
      <path id="Path_17" data-name="Path 17" d="M213.885,159.263l-37,36.975a3.012,3.012,0,0,0,2.134,5.146,3.066,3.066,0,0,0,2.134-.879l37-37a3.009,3.009,0,1,0-4.267-4.242Z" transform="translate(-131.821 -123.669)"/>
      <path id="Path_18" data-name="Path 18" d="M278.944,251.676a10.787,10.787,0,1,0,7.631-3.163A10.8,10.8,0,0,0,278.944,251.676Zm10.994,10.994a4.685,4.685,0,0,1-3.364,1.381,4.744,4.744,0,0,1-3.364-8.108,4.685,4.685,0,0,1,3.364-1.381,4.744,4.744,0,0,1,3.364,8.108Z" transform="translate(-206.57 -191.181)"/>
      <path id="Path_19" data-name="Path 19" d="M175.719,151.213a10.8,10.8,0,1,0,7.631,3.163A10.728,10.728,0,0,0,175.719,151.213Zm3.364,14.157a4.685,4.685,0,0,1-3.364,1.381,4.79,4.79,0,0,1-3.364-1.381,4.685,4.685,0,0,1-1.381-3.364,4.79,4.79,0,0,1,1.381-3.364,4.685,4.685,0,0,1,3.364-1.381,4.79,4.79,0,0,1,3.364,1.381,4.788,4.788,0,0,1,0,6.727Z" transform="translate(-123.526 -118.305)"/>
    </g>
  </g>
</svg>
