<svg xmlns="http://www.w3.org/2000/svg" width="138" height="154.914" viewBox="0 0 138 154.914">
  <g id="question" transform="translate(1.999)">
    <path id="Path_50" data-name="Path 50" d="M115.791,20.21A69,69,0,0,0,12.535,111.36l-9.425,39.79a3.058,3.058,0,0,0,4.218,3.5l42.4-18.835A69.007,69.007,0,0,0,115.791,20.21ZM67,131.88a63.077,63.077,0,0,1-16.712-2.248,3.056,3.056,0,0,0-2.053.153l-37.75,16.767,8.346-35.227a3.058,3.058,0,0,0-.605-2.638A62.88,62.88,0,1,1,67,131.88Zm0,0"/>
    <path id="Path_51" data-name="Path 51" d="M190.319,147.031A43.515,43.515,0,1,0,146.8,190.546,43.565,43.565,0,0,0,190.319,147.031Zm-43.515,37.4a37.4,37.4,0,1,1,37.4-37.4A37.439,37.439,0,0,1,146.8,184.428Zm0,0" transform="translate(-79.803 -78.46)"/>
    <path id="Path_52" data-name="Path 52" d="M415.1,378.059a3.058,3.058,0,0,0-3.848,1.979c-2.581,8.043-9.775,13.582-15.355,16.812a3.059,3.059,0,1,0,3.064,5.3c6.513-3.769,14.94-10.341,18.116-20.239a3.06,3.06,0,0,0-1.977-3.848Zm0,0" transform="translate(-300.426 -286.437)"/>
    <path id="Path_53" data-name="Path 53" d="M355.384,479.187a3.06,3.06,0,0,0-3.985,1.686l-.013.032a3.06,3.06,0,0,0,5.671,2.3l.012-.032a3.06,3.06,0,0,0-1.685-3.985Zm0,0" transform="translate(-267.676 -363.028)"/>
    <path id="Path_54" data-name="Path 54" d="M267.3,364.414A4.454,4.454,0,0,0,263.734,366a5.99,5.99,0,0,0,0,7.568,4.4,4.4,0,0,0,3.567,1.625,5.128,5.128,0,0,0,3.8-1.625,5.369,5.369,0,0,0-3.8-9.153Zm0,0" transform="translate(-200.391 -276.206)"/>
    <path id="Path_55" data-name="Path 55" d="M252.845,170.159q-4.439-3.8-11.886-3.8-6.657,0-10.618,3.011t-3.962,6.34a3.408,3.408,0,0,0,1.223,2.813,4.224,4.224,0,0,0,2.725.991,3.048,3.048,0,0,0,2.091-.808,9.6,9.6,0,0,0,1.541-1.727,5.792,5.792,0,0,1,2.369-1.727,10.277,10.277,0,0,1,4.341-.808,9.225,9.225,0,0,1,5.923,1.763,5.994,5.994,0,0,1,2.212,4.973,7.83,7.83,0,0,1-.911,3.642,10.652,10.652,0,0,1-1.822,2.664q-.912.9-2.734,2.468l-2.3,1.879q-4.754,4.232-4.754,12.377a5.315,5.315,0,0,0,.83,3.446,3.6,3.6,0,0,0,2.815.941q3.96,0,3.962-2.853a22.939,22.939,0,0,1,.634-6.182,9.112,9.112,0,0,1,3.327-4.279l1.515-1.268,2.075-1.981q.64-.633,1.96-2.259a17.884,17.884,0,0,0,2-2.931,20.072,20.072,0,0,0,1.278-3.21,12.8,12.8,0,0,0,.6-3.882A12.09,12.09,0,0,0,252.845,170.159Zm0,0" transform="translate(-173.098 -126.088)"/>
  </g>
</svg>
